<mxfile host="app.diagrams.net" modified="2023-09-27T04:59:21.066Z" agent="Mozilla/5.0 (Windows NT 10.0; Win64; x64) AppleWebKit/537.36 (KHTML, like Gecko) Chrome/117.0.0.0 Safari/537.36" version="21.8.2" etag="mFP8_eWKk5ksld_n4-A8" type="github">
  <diagram name="第 1 页" id="ud5IDVHORbhVEYpFEeWw">
    <mxGraphModel>
      <root>
        <mxCell id="0" />
        <mxCell id="1" parent="0" />
      </root>
    </mxGraphModel>
  </diagram>
</mxfile>
